<svg xmlns="http://www.w3.org/2000/svg" xmlns:xlink="http://www.w3.org/1999/xlink" width="336" zoomAndPan="magnify" viewBox="0 0 252 143.999998" height="192" preserveAspectRatio="xMidYMid meet" version="1.0"><defs><clipPath id="fe389217bf"><path d="M 0 0 L 153.785156 0 L 153.785156 144 L 0 144 Z M 0 0 " clip-rule="nonzero"/></clipPath><clipPath id="693c75a4a8"><path d="M 73.628906 -8.546875 C 29.359375 -8.546875 -6.53125 27.339844 -6.53125 71.609375 C -6.53125 115.882812 29.359375 151.769531 73.628906 151.769531 C 117.898438 151.769531 153.785156 115.882812 153.785156 71.609375 C 153.785156 27.339844 117.898438 -8.546875 73.628906 -8.546875 Z M 73.628906 -8.546875 " clip-rule="nonzero"/></clipPath><clipPath id="f176f3753e"><path d="M 0 0 L 153.785156 0 L 153.785156 144 L 0 144 Z M 0 0 " clip-rule="nonzero"/></clipPath><clipPath id="5d9b1ec43f"><path d="M 73.628906 -8.546875 C 29.359375 -8.546875 -6.53125 27.339844 -6.53125 71.609375 C -6.53125 115.882812 29.359375 151.769531 73.628906 151.769531 C 117.898438 151.769531 153.785156 115.882812 153.785156 71.609375 C 153.785156 27.339844 117.898438 -8.546875 73.628906 -8.546875 Z M 73.628906 -8.546875 " clip-rule="nonzero"/></clipPath><clipPath id="8ecd063c83"><rect x="0" width="154" y="0" height="144"/></clipPath><clipPath id="c6a1549134"><path d="M 2.644531 0.625 L 144.613281 0.625 L 144.613281 142.59375 L 2.644531 142.59375 Z M 2.644531 0.625 " clip-rule="nonzero"/></clipPath><clipPath id="ebd60166a5"><path d="M 73.628906 0.625 C 34.425781 0.625 2.644531 32.40625 2.644531 71.609375 C 2.644531 110.8125 34.425781 142.59375 73.628906 142.59375 C 112.832031 142.59375 144.613281 110.8125 144.613281 71.609375 C 144.613281 32.40625 112.832031 0.625 73.628906 0.625 Z M 73.628906 0.625 " clip-rule="nonzero"/></clipPath><clipPath id="b1999b6d58"><path d="M 0.644531 0.625 L 142.613281 0.625 L 142.613281 142.59375 L 0.644531 142.59375 Z M 0.644531 0.625 " clip-rule="nonzero"/></clipPath><clipPath id="c312744bae"><path d="M 71.628906 0.625 C 32.425781 0.625 0.644531 32.40625 0.644531 71.609375 C 0.644531 110.8125 32.425781 142.59375 71.628906 142.59375 C 110.832031 142.59375 142.613281 110.8125 142.613281 71.609375 C 142.613281 32.40625 110.832031 0.625 71.628906 0.625 Z M 71.628906 0.625 " clip-rule="nonzero"/></clipPath><clipPath id="9e62a7ec28"><rect x="0" width="143" y="0" height="143"/></clipPath><clipPath id="43632d5151"><path d="M 55.683594 53.664062 L 91.683594 53.664062 L 91.683594 89.664062 L 55.683594 89.664062 Z M 55.683594 53.664062 " clip-rule="nonzero"/></clipPath><clipPath id="e0f319f7b4"><path d="M 96.933594 0 L 252 0 L 252 144 L 96.933594 144 Z M 96.933594 0 " clip-rule="nonzero"/></clipPath><clipPath id="eb600c3729"><path d="M 177.089844 -8.546875 C 132.820312 -8.546875 96.933594 27.339844 96.933594 71.609375 C 96.933594 115.882812 132.820312 151.769531 177.089844 151.769531 C 221.359375 151.769531 257.25 115.882812 257.25 71.609375 C 257.25 27.339844 221.359375 -8.546875 177.089844 -8.546875 Z M 177.089844 -8.546875 " clip-rule="nonzero"/></clipPath><clipPath id="4da8ea9c19"><path d="M 0.933594 0 L 156 0 L 156 144 L 0.933594 144 Z M 0.933594 0 " clip-rule="nonzero"/></clipPath><clipPath id="cc720b6383"><path d="M 81.089844 -8.546875 C 36.820312 -8.546875 0.933594 27.339844 0.933594 71.609375 C 0.933594 115.882812 36.820312 151.769531 81.089844 151.769531 C 125.359375 151.769531 161.25 115.882812 161.25 71.609375 C 161.25 27.339844 125.359375 -8.546875 81.089844 -8.546875 Z M 81.089844 -8.546875 " clip-rule="nonzero"/></clipPath><clipPath id="d362963ae5"><rect x="0" width="156" y="0" height="144"/></clipPath><clipPath id="1d68833e17"><path d="M 106.105469 0.625 L 248.074219 0.625 L 248.074219 142.59375 L 106.105469 142.59375 Z M 106.105469 0.625 " clip-rule="nonzero"/></clipPath><clipPath id="1b4577238a"><path d="M 177.089844 0.625 C 137.886719 0.625 106.105469 32.40625 106.105469 71.609375 C 106.105469 110.8125 137.886719 142.59375 177.089844 142.59375 C 216.292969 142.59375 248.074219 110.8125 248.074219 71.609375 C 248.074219 32.40625 216.292969 0.625 177.089844 0.625 Z M 177.089844 0.625 " clip-rule="nonzero"/></clipPath><clipPath id="105e02f55e"><path d="M 0.105469 0.625 L 142.074219 0.625 L 142.074219 142.59375 L 0.105469 142.59375 Z M 0.105469 0.625 " clip-rule="nonzero"/></clipPath><clipPath id="4328a585b5"><path d="M 71.089844 0.625 C 31.886719 0.625 0.105469 32.40625 0.105469 71.609375 C 0.105469 110.8125 31.886719 142.59375 71.089844 142.59375 C 110.292969 142.59375 142.074219 110.8125 142.074219 71.609375 C 142.074219 32.40625 110.292969 0.625 71.089844 0.625 Z M 71.089844 0.625 " clip-rule="nonzero"/></clipPath><clipPath id="3f299992f9"><rect x="0" width="143" y="0" height="143"/></clipPath><clipPath id="ad6a123bfc"><path d="M 159.144531 53.664062 L 195.144531 53.664062 L 195.144531 89.664062 L 159.144531 89.664062 Z M 159.144531 53.664062 " clip-rule="nonzero"/></clipPath></defs><g clip-path="url(#fe389217bf)"><g clip-path="url(#693c75a4a8)"><g transform="matrix(1, 0, 0, 1, 0, -0.000000000000008916)"><g clip-path="url(#8ecd063c83)"><g clip-path="url(#f176f3753e)"><g clip-path="url(#5d9b1ec43f)"><path fill="#ffffff" d="M -6.53125 -8.546875 L 153.785156 -8.546875 L 153.785156 151.769531 L -6.53125 151.769531 Z M -6.53125 -8.546875 " fill-opacity="1" fill-rule="nonzero"/></g></g></g></g></g></g><g clip-path="url(#c6a1549134)"><g clip-path="url(#ebd60166a5)"><g transform="matrix(1, 0, 0, 1, 2, -0.000000000000008937)"><g clip-path="url(#9e62a7ec28)"><g clip-path="url(#b1999b6d58)"><g clip-path="url(#c312744bae)"><path fill="#000000" d="M 0.644531 0.625 L 142.613281 0.625 L 142.613281 142.59375 L 0.644531 142.59375 Z M 0.644531 0.625 " fill-opacity="1" fill-rule="nonzero"/></g></g></g></g></g></g><g clip-path="url(#43632d5151)"><path fill="#ffffff" d="M 91.566406 71.605469 C 91.566406 72.191406 91.535156 72.78125 91.476562 73.363281 C 91.421875 73.949219 91.335938 74.53125 91.21875 75.105469 C 91.105469 75.683594 90.960938 76.25 90.792969 76.8125 C 90.621094 77.375 90.425781 77.929688 90.199219 78.472656 C 89.972656 79.015625 89.722656 79.546875 89.445312 80.0625 C 89.167969 80.582031 88.867188 81.085938 88.542969 81.574219 C 88.214844 82.0625 87.863281 82.535156 87.492188 82.988281 C 87.121094 83.441406 86.726562 83.875 86.308594 84.292969 C 85.894531 84.707031 85.460938 85.101562 85.003906 85.472656 C 84.550781 85.847656 84.078125 86.195312 83.589844 86.523438 C 83.101562 86.851562 82.597656 87.152344 82.082031 87.429688 C 81.5625 87.707031 81.03125 87.957031 80.488281 88.179688 C 79.945312 88.40625 79.394531 88.605469 78.832031 88.773438 C 78.269531 88.945312 77.699219 89.085938 77.125 89.203125 C 76.546875 89.316406 75.964844 89.402344 75.382812 89.460938 C 74.796875 89.519531 74.210938 89.546875 73.625 89.546875 C 73.035156 89.546875 72.449219 89.519531 71.863281 89.460938 C 71.28125 89.402344 70.699219 89.316406 70.125 89.203125 C 69.546875 89.085938 68.976562 88.945312 68.414062 88.773438 C 67.851562 88.605469 67.300781 88.40625 66.757812 88.179688 C 66.214844 87.957031 65.683594 87.707031 65.164062 87.429688 C 64.648438 87.152344 64.144531 86.851562 63.65625 86.523438 C 63.167969 86.195312 62.695312 85.847656 62.242188 85.472656 C 61.789062 85.101562 61.351562 84.707031 60.9375 84.292969 C 60.519531 83.875 60.128906 83.441406 59.753906 82.988281 C 59.382812 82.535156 59.03125 82.0625 58.707031 81.574219 C 58.378906 81.085938 58.078125 80.582031 57.800781 80.0625 C 57.523438 79.546875 57.273438 79.015625 57.046875 78.472656 C 56.824219 77.929688 56.625 77.375 56.453125 76.8125 C 56.285156 76.25 56.140625 75.683594 56.027344 75.105469 C 55.910156 74.53125 55.824219 73.949219 55.769531 73.363281 C 55.710938 72.78125 55.683594 72.191406 55.683594 71.605469 C 55.683594 71.019531 55.710938 70.433594 55.769531 69.847656 C 55.824219 69.261719 55.910156 68.683594 56.027344 68.105469 C 56.140625 67.527344 56.285156 66.960938 56.453125 66.398438 C 56.625 65.835938 56.824219 65.28125 57.046875 64.738281 C 57.273438 64.195312 57.523438 63.667969 57.800781 63.148438 C 58.078125 62.628906 58.378906 62.125 58.707031 61.636719 C 59.03125 61.148438 59.382812 60.679688 59.753906 60.222656 C 60.128906 59.769531 60.519531 59.335938 60.9375 58.917969 C 61.351562 58.503906 61.789062 58.109375 62.242188 57.738281 C 62.695312 57.363281 63.167969 57.015625 63.65625 56.6875 C 64.144531 56.363281 64.648438 56.058594 65.164062 55.78125 C 65.683594 55.503906 66.214844 55.253906 66.757812 55.03125 C 67.300781 54.804688 67.851562 54.605469 68.414062 54.4375 C 68.976562 54.265625 69.546875 54.125 70.125 54.007812 C 70.699219 53.894531 71.28125 53.808594 71.863281 53.75 C 72.449219 53.691406 73.035156 53.664062 73.625 53.664062 C 74.210938 53.664062 74.796875 53.691406 75.382812 53.75 C 75.964844 53.808594 76.546875 53.894531 77.125 54.007812 C 77.699219 54.125 78.269531 54.265625 78.832031 54.4375 C 79.394531 54.605469 79.945312 54.804688 80.488281 55.03125 C 81.03125 55.253906 81.5625 55.503906 82.082031 55.78125 C 82.597656 56.058594 83.101562 56.363281 83.589844 56.6875 C 84.078125 57.015625 84.550781 57.363281 85.003906 57.738281 C 85.460938 58.109375 85.894531 58.503906 86.308594 58.917969 C 86.726562 59.335938 87.121094 59.769531 87.492188 60.222656 C 87.863281 60.679688 88.214844 61.148438 88.542969 61.636719 C 88.867188 62.125 89.167969 62.628906 89.445312 63.148438 C 89.722656 63.667969 89.972656 64.195312 90.199219 64.738281 C 90.425781 65.28125 90.621094 65.835938 90.792969 66.398438 C 90.960938 66.960938 91.105469 67.527344 91.21875 68.105469 C 91.335938 68.683594 91.421875 69.261719 91.476562 69.847656 C 91.535156 70.433594 91.566406 71.019531 91.566406 71.605469 Z M 91.566406 71.605469 " fill-opacity="1" fill-rule="nonzero"/></g><g clip-path="url(#e0f319f7b4)"><g clip-path="url(#eb600c3729)"><g transform="matrix(1, 0, 0, 1, 96, -0.000000000000008916)"><g clip-path="url(#d362963ae5)"><g clip-path="url(#4da8ea9c19)"><g clip-path="url(#cc720b6383)"><path fill="#ffffff" d="M 0.933594 -8.546875 L 161.25 -8.546875 L 161.25 151.769531 L 0.933594 151.769531 Z M 0.933594 -8.546875 " fill-opacity="1" fill-rule="nonzero"/></g></g></g></g></g></g><g clip-path="url(#1d68833e17)"><g clip-path="url(#1b4577238a)"><g transform="matrix(1, 0, 0, 1, 106, -0.000000000000008937)"><g clip-path="url(#3f299992f9)"><g clip-path="url(#105e02f55e)"><g clip-path="url(#4328a585b5)"><path fill="#000000" d="M 0.105469 0.625 L 142.074219 0.625 L 142.074219 142.59375 L 0.105469 142.59375 Z M 0.105469 0.625 " fill-opacity="1" fill-rule="nonzero"/></g></g></g></g></g></g><g clip-path="url(#ad6a123bfc)"><path fill="#ffffff" d="M 195.027344 71.605469 C 195.027344 72.191406 195 72.78125 194.941406 73.363281 C 194.882812 73.949219 194.796875 74.53125 194.683594 75.105469 C 194.566406 75.683594 194.425781 76.25 194.253906 76.8125 C 194.085938 77.375 193.886719 77.929688 193.660156 78.472656 C 193.4375 79.015625 193.1875 79.546875 192.910156 80.0625 C 192.632812 80.582031 192.328125 81.085938 192.003906 81.574219 C 191.675781 82.0625 191.328125 82.535156 190.953125 82.988281 C 190.582031 83.441406 190.1875 83.875 189.773438 84.292969 C 189.355469 84.707031 188.921875 85.101562 188.46875 85.472656 C 188.011719 85.847656 187.542969 86.195312 187.054688 86.523438 C 186.566406 86.851562 186.0625 87.152344 185.542969 87.429688 C 185.023438 87.707031 184.496094 87.957031 183.953125 88.179688 C 183.410156 88.40625 182.855469 88.605469 182.292969 88.773438 C 181.730469 88.945312 181.164062 89.085938 180.585938 89.203125 C 180.007812 89.316406 179.429688 89.402344 178.84375 89.460938 C 178.257812 89.519531 177.671875 89.546875 177.085938 89.546875 C 176.5 89.546875 175.910156 89.519531 175.328125 89.460938 C 174.742188 89.402344 174.160156 89.316406 173.585938 89.203125 C 173.007812 89.085938 172.441406 88.945312 171.878906 88.773438 C 171.316406 88.605469 170.761719 88.40625 170.21875 88.179688 C 169.675781 87.957031 169.144531 87.707031 168.628906 87.429688 C 168.109375 87.152344 167.605469 86.851562 167.117188 86.523438 C 166.628906 86.195312 166.15625 85.847656 165.703125 85.472656 C 165.25 85.101562 164.816406 84.707031 164.398438 84.292969 C 163.984375 83.875 163.589844 83.441406 163.21875 82.988281 C 162.84375 82.535156 162.496094 82.0625 162.167969 81.574219 C 161.839844 81.085938 161.539062 80.582031 161.261719 80.0625 C 160.984375 79.546875 160.734375 79.015625 160.511719 78.472656 C 160.285156 77.929688 160.085938 77.375 159.917969 76.8125 C 159.746094 76.25 159.605469 75.683594 159.488281 75.105469 C 159.375 74.53125 159.289062 73.949219 159.230469 73.363281 C 159.171875 72.78125 159.144531 72.191406 159.144531 71.605469 C 159.144531 71.019531 159.171875 70.433594 159.230469 69.847656 C 159.289062 69.261719 159.375 68.683594 159.488281 68.105469 C 159.605469 67.527344 159.746094 66.960938 159.917969 66.398438 C 160.085938 65.835938 160.285156 65.28125 160.511719 64.738281 C 160.734375 64.195312 160.984375 63.667969 161.261719 63.148438 C 161.539062 62.628906 161.839844 62.125 162.167969 61.636719 C 162.496094 61.148438 162.84375 60.679688 163.21875 60.222656 C 163.589844 59.769531 163.984375 59.335938 164.398438 58.917969 C 164.816406 58.503906 165.25 58.109375 165.703125 57.738281 C 166.15625 57.363281 166.628906 57.015625 167.117188 56.6875 C 167.605469 56.363281 168.109375 56.058594 168.628906 55.78125 C 169.144531 55.503906 169.675781 55.253906 170.21875 55.03125 C 170.761719 54.804688 171.316406 54.605469 171.878906 54.4375 C 172.441406 54.265625 173.007812 54.125 173.585938 54.007812 C 174.160156 53.894531 174.742188 53.808594 175.328125 53.75 C 175.910156 53.691406 176.5 53.664062 177.085938 53.664062 C 177.671875 53.664062 178.257812 53.691406 178.84375 53.75 C 179.429688 53.808594 180.007812 53.894531 180.585938 54.007812 C 181.164062 54.125 181.730469 54.265625 182.292969 54.4375 C 182.855469 54.605469 183.410156 54.804688 183.953125 55.03125 C 184.496094 55.253906 185.023438 55.503906 185.542969 55.78125 C 186.0625 56.058594 186.566406 56.363281 187.054688 56.6875 C 187.542969 57.015625 188.011719 57.363281 188.46875 57.738281 C 188.921875 58.109375 189.355469 58.503906 189.773438 58.917969 C 190.1875 59.335938 190.582031 59.769531 190.953125 60.222656 C 191.328125 60.679688 191.675781 61.148438 192.003906 61.636719 C 192.328125 62.125 192.632812 62.628906 192.910156 63.148438 C 193.1875 63.667969 193.4375 64.195312 193.660156 64.738281 C 193.886719 65.28125 194.085938 65.835938 194.253906 66.398438 C 194.425781 66.960938 194.566406 67.527344 194.683594 68.105469 C 194.796875 68.683594 194.882812 69.261719 194.941406 69.847656 C 195 70.433594 195.027344 71.019531 195.027344 71.605469 Z M 195.027344 71.605469 " fill-opacity="1" fill-rule="nonzero"/></g><path stroke-linecap="butt" transform="matrix(0.75, 0, 0, 0.75, -6.529523, 65.985958)" fill="none" stroke-linejoin="miter" d="M -0.00230284 7.49789 L 351.706051 7.49789 " stroke="#ffffff" stroke-width="15" stroke-opacity="1" stroke-miterlimit="4"/></svg>