<svg xmlns="http://www.w3.org/2000/svg" xmlns:xlink="http://www.w3.org/1999/xlink" width="336" zoomAndPan="magnify" viewBox="0 0 252 143.999998" height="192" preserveAspectRatio="xMidYMid meet" version="1.0"><defs><g/><clipPath id="888396fc5e"><path d="M 8.503906 45.726562 L 51.703125 45.726562 L 51.703125 88.929688 L 8.503906 88.929688 Z M 8.503906 45.726562 " clip-rule="nonzero"/></clipPath><clipPath id="404add14e5"><path d="M 30.105469 45.726562 C 18.175781 45.726562 8.503906 55.398438 8.503906 67.328125 C 8.503906 79.257812 18.175781 88.929688 30.105469 88.929688 C 42.035156 88.929688 51.703125 79.257812 51.703125 67.328125 C 51.703125 55.398438 42.035156 45.726562 30.105469 45.726562 Z M 30.105469 45.726562 " clip-rule="nonzero"/></clipPath><clipPath id="f54cfccde0"><path d="M 0.503906 0.726562 L 43.703125 0.726562 L 43.703125 43.929688 L 0.503906 43.929688 Z M 0.503906 0.726562 " clip-rule="nonzero"/></clipPath><clipPath id="b7f683dd8b"><path d="M 22.105469 0.726562 C 10.175781 0.726562 0.503906 10.398438 0.503906 22.328125 C 0.503906 34.257812 10.175781 43.929688 22.105469 43.929688 C 34.035156 43.929688 43.703125 34.257812 43.703125 22.328125 C 43.703125 10.398438 34.035156 0.726562 22.105469 0.726562 Z M 22.105469 0.726562 " clip-rule="nonzero"/></clipPath><clipPath id="37d8a8c772"><rect x="0" width="44" y="0" height="44"/></clipPath><clipPath id="3a47c92b34"><path d="M 10.976562 48.199219 L 49.230469 48.199219 L 49.230469 86.457031 L 10.976562 86.457031 Z M 10.976562 48.199219 " clip-rule="nonzero"/></clipPath><clipPath id="34f542e38e"><path d="M 30.105469 48.199219 C 19.539062 48.199219 10.976562 56.765625 10.976562 67.328125 C 10.976562 77.890625 19.539062 86.457031 30.105469 86.457031 C 40.667969 86.457031 49.230469 77.890625 49.230469 67.328125 C 49.230469 56.765625 40.667969 48.199219 30.105469 48.199219 Z M 30.105469 48.199219 " clip-rule="nonzero"/></clipPath><clipPath id="da317e2747"><path d="M 0.976562 0.199219 L 39.230469 0.199219 L 39.230469 38.457031 L 0.976562 38.457031 Z M 0.976562 0.199219 " clip-rule="nonzero"/></clipPath><clipPath id="c5d996865f"><path d="M 20.105469 0.199219 C 9.539062 0.199219 0.976562 8.765625 0.976562 19.328125 C 0.976562 29.890625 9.539062 38.457031 20.105469 38.457031 C 30.667969 38.457031 39.230469 29.890625 39.230469 19.328125 C 39.230469 8.765625 30.667969 0.199219 20.105469 0.199219 Z M 20.105469 0.199219 " clip-rule="nonzero"/></clipPath><clipPath id="e482a45939"><rect x="0" width="40" y="0" height="39"/></clipPath><clipPath id="d5d1abd394"><path d="M 25.269531 62.492188 L 35 62.492188 L 35 72.242188 L 25.269531 72.242188 Z M 25.269531 62.492188 " clip-rule="nonzero"/></clipPath><clipPath id="c532363c0d"><path d="M 36.382812 45.726562 L 79.582031 45.726562 L 79.582031 88.929688 L 36.382812 88.929688 Z M 36.382812 45.726562 " clip-rule="nonzero"/></clipPath><clipPath id="8358e85c33"><path d="M 57.984375 45.726562 C 46.054688 45.726562 36.382812 55.398438 36.382812 67.328125 C 36.382812 79.257812 46.054688 88.929688 57.984375 88.929688 C 69.914062 88.929688 79.582031 79.257812 79.582031 67.328125 C 79.582031 55.398438 69.914062 45.726562 57.984375 45.726562 Z M 57.984375 45.726562 " clip-rule="nonzero"/></clipPath><clipPath id="38a5882fcd"><path d="M 0.382812 0.726562 L 43.582031 0.726562 L 43.582031 43.929688 L 0.382812 43.929688 Z M 0.382812 0.726562 " clip-rule="nonzero"/></clipPath><clipPath id="c4141bf67c"><path d="M 21.984375 0.726562 C 10.054688 0.726562 0.382812 10.398438 0.382812 22.328125 C 0.382812 34.257812 10.054688 43.929688 21.984375 43.929688 C 33.914062 43.929688 43.582031 34.257812 43.582031 22.328125 C 43.582031 10.398438 33.914062 0.726562 21.984375 0.726562 Z M 21.984375 0.726562 " clip-rule="nonzero"/></clipPath><clipPath id="525d26d27d"><rect x="0" width="44" y="0" height="44"/></clipPath><clipPath id="2a92726d78"><path d="M 38.855469 48.199219 L 77.113281 48.199219 L 77.113281 86.457031 L 38.855469 86.457031 Z M 38.855469 48.199219 " clip-rule="nonzero"/></clipPath><clipPath id="b31726641c"><path d="M 57.984375 48.199219 C 47.417969 48.199219 38.855469 56.765625 38.855469 67.328125 C 38.855469 77.890625 47.417969 86.457031 57.984375 86.457031 C 68.546875 86.457031 77.113281 77.890625 77.113281 67.328125 C 77.113281 56.765625 68.546875 48.199219 57.984375 48.199219 Z M 57.984375 48.199219 " clip-rule="nonzero"/></clipPath><clipPath id="c74e7fe068"><path d="M 0.855469 0.199219 L 39.113281 0.199219 L 39.113281 38.457031 L 0.855469 38.457031 Z M 0.855469 0.199219 " clip-rule="nonzero"/></clipPath><clipPath id="40e24c15eb"><path d="M 19.984375 0.199219 C 9.417969 0.199219 0.855469 8.765625 0.855469 19.328125 C 0.855469 29.890625 9.417969 38.457031 19.984375 38.457031 C 30.546875 38.457031 39.113281 29.890625 39.113281 19.328125 C 39.113281 8.765625 30.546875 0.199219 19.984375 0.199219 Z M 19.984375 0.199219 " clip-rule="nonzero"/></clipPath><clipPath id="54b78cc33f"><rect x="0" width="40" y="0" height="39"/></clipPath><clipPath id="c6e879ebbe"><path d="M 53.148438 62.492188 L 62.898438 62.492188 L 62.898438 72.242188 L 53.148438 72.242188 Z M 53.148438 62.492188 " clip-rule="nonzero"/></clipPath><clipPath id="638047aeaf"><rect x="0" width="112" y="0" height="81"/></clipPath><clipPath id="097a639851"><rect x="0" width="48" y="0" height="19"/></clipPath></defs><g clip-path="url(#888396fc5e)"><g clip-path="url(#404add14e5)"><g transform="matrix(1, 0, 0, 1, 8, 45)"><g clip-path="url(#37d8a8c772)"><g clip-path="url(#f54cfccde0)"><g clip-path="url(#b7f683dd8b)"><path fill="#ffffff" d="M 0.503906 0.726562 L 43.703125 0.726562 L 43.703125 43.929688 L 0.503906 43.929688 Z M 0.503906 0.726562 " fill-opacity="1" fill-rule="nonzero"/></g></g></g></g></g></g><g clip-path="url(#3a47c92b34)"><g clip-path="url(#34f542e38e)"><g transform="matrix(1, 0, 0, 1, 10, 48)"><g clip-path="url(#e482a45939)"><g clip-path="url(#da317e2747)"><g clip-path="url(#c5d996865f)"><path fill="#000000" d="M 0.976562 0.199219 L 39.230469 0.199219 L 39.230469 38.457031 L 0.976562 38.457031 Z M 0.976562 0.199219 " fill-opacity="1" fill-rule="nonzero"/></g></g></g></g></g></g><g clip-path="url(#d5d1abd394)"><path fill="#ffffff" d="M 34.9375 67.324219 C 34.9375 67.644531 34.90625 67.957031 34.84375 68.269531 C 34.78125 68.582031 34.6875 68.882812 34.566406 69.175781 C 34.445312 69.46875 34.296875 69.746094 34.121094 70.011719 C 33.945312 70.277344 33.746094 70.519531 33.519531 70.742188 C 33.296875 70.96875 33.050781 71.167969 32.789062 71.34375 C 32.523438 71.523438 32.246094 71.671875 31.953125 71.792969 C 31.660156 71.914062 31.355469 72.003906 31.046875 72.066406 C 30.734375 72.128906 30.417969 72.160156 30.101562 72.160156 C 29.785156 72.160156 29.46875 72.128906 29.160156 72.066406 C 28.847656 72.003906 28.546875 71.914062 28.253906 71.792969 C 27.957031 71.671875 27.679688 71.523438 27.417969 71.34375 C 27.152344 71.167969 26.90625 70.96875 26.683594 70.742188 C 26.460938 70.519531 26.257812 70.277344 26.082031 70.011719 C 25.90625 69.746094 25.757812 69.46875 25.636719 69.175781 C 25.515625 68.882812 25.421875 68.582031 25.359375 68.269531 C 25.300781 67.957031 25.269531 67.644531 25.269531 67.324219 C 25.269531 67.007812 25.300781 66.695312 25.359375 66.382812 C 25.421875 66.070312 25.515625 65.769531 25.636719 65.476562 C 25.757812 65.183594 25.90625 64.902344 26.082031 64.640625 C 26.257812 64.375 26.460938 64.132812 26.683594 63.90625 C 26.90625 63.683594 27.152344 63.484375 27.417969 63.304688 C 27.679688 63.128906 27.957031 62.980469 28.253906 62.859375 C 28.546875 62.738281 28.847656 62.648438 29.160156 62.585938 C 29.46875 62.523438 29.785156 62.492188 30.101562 62.492188 C 30.417969 62.492188 30.734375 62.523438 31.046875 62.585938 C 31.355469 62.648438 31.660156 62.738281 31.953125 62.859375 C 32.246094 62.980469 32.523438 63.128906 32.789062 63.304688 C 33.050781 63.484375 33.296875 63.683594 33.519531 63.90625 C 33.746094 64.132812 33.945312 64.375 34.121094 64.640625 C 34.296875 64.902344 34.445312 65.183594 34.566406 65.476562 C 34.6875 65.769531 34.78125 66.070312 34.84375 66.382812 C 34.90625 66.695312 34.9375 67.007812 34.9375 67.324219 Z M 34.9375 67.324219 " fill-opacity="1" fill-rule="nonzero"/></g><g clip-path="url(#c532363c0d)"><g clip-path="url(#8358e85c33)"><g transform="matrix(1, 0, 0, 1, 36, 45)"><g clip-path="url(#525d26d27d)"><g clip-path="url(#38a5882fcd)"><g clip-path="url(#c4141bf67c)"><path fill="#ffffff" d="M 0.382812 0.726562 L 43.582031 0.726562 L 43.582031 43.929688 L 0.382812 43.929688 Z M 0.382812 0.726562 " fill-opacity="1" fill-rule="nonzero"/></g></g></g></g></g></g><g clip-path="url(#2a92726d78)"><g clip-path="url(#b31726641c)"><g transform="matrix(1, 0, 0, 1, 38, 48)"><g clip-path="url(#54b78cc33f)"><g clip-path="url(#c74e7fe068)"><g clip-path="url(#40e24c15eb)"><path fill="#000000" d="M 0.855469 0.199219 L 39.113281 0.199219 L 39.113281 38.457031 L 0.855469 38.457031 Z M 0.855469 0.199219 " fill-opacity="1" fill-rule="nonzero"/></g></g></g></g></g></g><g clip-path="url(#c6e879ebbe)"><path fill="#ffffff" d="M 62.816406 67.324219 C 62.816406 67.644531 62.785156 67.957031 62.722656 68.269531 C 62.660156 68.582031 62.570312 68.882812 62.449219 69.175781 C 62.324219 69.46875 62.175781 69.746094 62 70.011719 C 61.824219 70.277344 61.625 70.519531 61.398438 70.742188 C 61.175781 70.96875 60.929688 71.167969 60.667969 71.34375 C 60.402344 71.523438 60.125 71.671875 59.832031 71.792969 C 59.539062 71.914062 59.234375 72.003906 58.925781 72.066406 C 58.613281 72.128906 58.300781 72.160156 57.980469 72.160156 C 57.664062 72.160156 57.351562 72.128906 57.039062 72.066406 C 56.726562 72.003906 56.425781 71.914062 56.132812 71.792969 C 55.839844 71.671875 55.558594 71.523438 55.296875 71.34375 C 55.03125 71.167969 54.789062 70.96875 54.5625 70.742188 C 54.339844 70.519531 54.136719 70.277344 53.960938 70.011719 C 53.785156 69.746094 53.636719 69.46875 53.515625 69.175781 C 53.394531 68.882812 53.300781 68.582031 53.242188 68.269531 C 53.179688 67.957031 53.148438 67.644531 53.148438 67.324219 C 53.148438 67.007812 53.179688 66.695312 53.242188 66.382812 C 53.300781 66.070312 53.394531 65.769531 53.515625 65.476562 C 53.636719 65.183594 53.785156 64.902344 53.960938 64.640625 C 54.136719 64.375 54.339844 64.132812 54.5625 63.90625 C 54.789062 63.683594 55.03125 63.484375 55.296875 63.304688 C 55.558594 63.128906 55.839844 62.980469 56.132812 62.859375 C 56.425781 62.738281 56.726562 62.648438 57.039062 62.585938 C 57.351562 62.523438 57.664062 62.492188 57.980469 62.492188 C 58.300781 62.492188 58.613281 62.523438 58.925781 62.585938 C 59.234375 62.648438 59.539062 62.738281 59.832031 62.859375 C 60.125 62.980469 60.402344 63.128906 60.667969 63.304688 C 60.929688 63.484375 61.175781 63.683594 61.398438 63.90625 C 61.625 64.132812 61.824219 64.375 62 64.640625 C 62.175781 64.902344 62.324219 65.183594 62.449219 65.476562 C 62.570312 65.769531 62.660156 66.070312 62.722656 66.382812 C 62.785156 66.695312 62.816406 67.007812 62.816406 67.324219 Z M 62.816406 67.324219 " fill-opacity="1" fill-rule="nonzero"/></g><g transform="matrix(1, 0, 0, 1, 78, 30)"><g clip-path="url(#638047aeaf)"><g fill="#000000" fill-opacity="1"><g transform="translate(0.611541, 54.643928)"><g><path d="M 3.078125 0 L 3.078125 -35.40625 L 19.265625 -35.40625 C 21.660156 -35.40625 23.84375 -34.878906 25.8125 -33.828125 C 27.789062 -32.785156 29.359375 -31.335938 30.515625 -29.484375 C 31.679688 -27.628906 32.265625 -25.488281 32.265625 -23.0625 C 32.265625 -20.800781 31.722656 -18.769531 30.640625 -16.96875 C 29.566406 -15.164062 28.15625 -13.707031 26.40625 -12.59375 L 29.234375 -7.78125 C 29.398438 -7.550781 29.59375 -7.367188 29.8125 -7.234375 C 30.03125 -7.097656 30.328125 -7.03125 30.703125 -7.03125 L 33.84375 -7.03125 L 33.84375 0 L 28.875 0 C 27.363281 0 25.984375 -0.359375 24.734375 -1.078125 C 23.484375 -1.804688 22.503906 -2.757812 21.796875 -3.9375 L 18 -10.671875 C 17.769531 -10.671875 17.523438 -10.671875 17.265625 -10.671875 C 17.015625 -10.671875 16.753906 -10.671875 16.484375 -10.671875 L 11.578125 -10.671875 L 11.578125 0 Z M 11.578125 -17.703125 L 18.3125 -17.703125 C 19.289062 -17.703125 20.203125 -17.910156 21.046875 -18.328125 C 21.890625 -18.753906 22.550781 -19.363281 23.03125 -20.15625 C 23.519531 -20.945312 23.765625 -21.898438 23.765625 -23.015625 C 23.765625 -24.128906 23.507812 -25.082031 23 -25.875 C 22.5 -26.664062 21.835938 -27.269531 21.015625 -27.6875 C 20.191406 -28.113281 19.289062 -28.328125 18.3125 -28.328125 L 11.578125 -28.328125 Z M 11.578125 -17.703125 "/></g></g></g><g fill="#000000" fill-opacity="1"><g transform="translate(34.952493, 54.643928)"><g><path d="M 0 0 L 11.484375 -31.3125 C 12.054688 -32.863281 13 -34.035156 14.3125 -34.828125 C 15.625 -35.617188 17.109375 -36.015625 18.765625 -36.015625 C 20.421875 -36.015625 21.90625 -35.632812 23.21875 -34.875 C 24.53125 -34.113281 25.472656 -32.941406 26.046875 -31.359375 L 37.578125 0 L 28.421875 0 L 26.203125 -6.828125 L 11.171875 -6.828125 L 8.84375 0 Z M 13.359375 -13.859375 L 24.03125 -13.859375 L 19.515625 -27.96875 C 19.453125 -28.164062 19.359375 -28.304688 19.234375 -28.390625 C 19.117188 -28.484375 18.976562 -28.53125 18.8125 -28.53125 C 18.644531 -28.53125 18.5 -28.476562 18.375 -28.375 C 18.257812 -28.269531 18.1875 -28.132812 18.15625 -27.96875 Z M 13.359375 -13.859375 "/></g></g></g><g fill="#000000" fill-opacity="1"><g transform="translate(71.771692, 54.643928)"><g><path d="M 3.078125 0 L 3.078125 -35.40625 L 11.578125 -35.40625 L 11.578125 -21.5 L 25.390625 -21.5 L 25.390625 -35.40625 L 33.890625 -35.40625 L 33.890625 0 L 25.390625 0 L 25.390625 -14.421875 L 11.578125 -14.421875 L 11.578125 0 Z M 3.078125 0 "/></g></g></g></g></g><g transform="matrix(1, 0, 0, 1, 196, 72)"><g clip-path="url(#097a639851)"><g fill="#545454" fill-opacity="1"><g transform="translate(0.926623, 15.040337)"><g><path d="M 5.40625 -9.40625 L 5.40625 0 L 3.984375 0 L 3.984375 -9.40625 L 0.34375 -9.40625 L 0.34375 -10.578125 L 9.03125 -10.578125 L 9.03125 -9.40625 Z M 5.40625 -9.40625 "/></g></g></g><g fill="#545454" fill-opacity="1"><g transform="translate(10.332737, 15.040337)"><g><path d="M 1.265625 0 L 1.265625 -10.578125 L 9.28125 -10.578125 L 9.28125 -9.40625 L 2.6875 -9.40625 L 2.6875 -6.015625 L 8.84375 -6.015625 L 8.84375 -4.859375 L 2.6875 -4.859375 L 2.6875 -1.171875 L 9.59375 -1.171875 L 9.59375 0 Z M 1.265625 0 "/></g></g></g><g fill="#545454" fill-opacity="1"><g transform="translate(20.602101, 15.040337)"><g><path d="M 5.953125 -9.5625 C 4.773438 -9.5625 3.859375 -9.179688 3.203125 -8.421875 C 2.554688 -7.671875 2.234375 -6.644531 2.234375 -5.34375 C 2.234375 -4.039062 2.570312 -2.992188 3.25 -2.203125 C 3.925781 -1.421875 4.84375 -1.03125 6 -1.03125 C 7.488281 -1.03125 8.601562 -1.765625 9.34375 -3.234375 L 10.515625 -2.640625 C 10.078125 -1.734375 9.460938 -1.039062 8.671875 -0.5625 C 7.890625 -0.0820312 6.976562 0.15625 5.9375 0.15625 C 4.875 0.15625 3.953125 -0.0625 3.171875 -0.5 C 2.390625 -0.945312 1.796875 -1.582031 1.390625 -2.40625 C 0.984375 -3.238281 0.78125 -4.21875 0.78125 -5.34375 C 0.78125 -7.03125 1.234375 -8.347656 2.140625 -9.296875 C 3.054688 -10.253906 4.320312 -10.734375 5.9375 -10.734375 C 7.0625 -10.734375 8 -10.515625 8.75 -10.078125 C 9.507812 -9.640625 10.066406 -8.984375 10.421875 -8.109375 L 9.0625 -7.671875 C 8.8125 -8.285156 8.414062 -8.753906 7.875 -9.078125 C 7.332031 -9.398438 6.691406 -9.5625 5.953125 -9.5625 Z M 5.953125 -9.5625 "/></g></g></g><g fill="#545454" fill-opacity="1"><g transform="translate(31.719714, 15.040337)"><g><path d="M 8.421875 0 L 8.421875 -4.90625 L 2.6875 -4.90625 L 2.6875 0 L 1.265625 0 L 1.265625 -10.578125 L 2.6875 -10.578125 L 2.6875 -6.109375 L 8.421875 -6.109375 L 8.421875 -10.578125 L 9.84375 -10.578125 L 9.84375 0 Z M 8.421875 0 "/></g></g></g><g fill="#545454" fill-opacity="1"><g transform="translate(42.837328, 15.040337)"><g><path d="M 1.40625 0 L 1.40625 -1.640625 L 2.875 -1.640625 L 2.875 0 Z M 1.40625 0 "/></g></g></g></g></g><path stroke-linecap="butt" transform="matrix(0.75, 0, 0, 0.75, 8.503939, 65.827997)" fill="none" stroke-linejoin="miter" d="M -0.0000433007 2.00017 L 94.770796 2.00017 " stroke="#ffffff" stroke-width="4" stroke-opacity="1" stroke-miterlimit="4"/></svg>